<svg width="35" height="35" viewBox="0 0 35 35" fill="none" xmlns="http://www.w3.org/2000/svg">
<rect width="35" height="35" rx="4" fill="#F1F2F3"/>
<path d="M13.0299 25.375H9.29732V13.1072H13.0299V25.375ZM11.1616 11.4338C9.9683 11.4338 9 10.4248 9 9.20664C9 8.6214 9.22774 8.06014 9.63312 7.64631C10.0385 7.23248 10.5883 7 11.1616 7C11.7349 7 12.2847 7.23248 12.6901 7.64631C13.0955 8.06014 13.3232 8.6214 13.3232 9.20664C13.3232 10.4248 12.3549 11.4338 11.1616 11.4338ZM26.996 25.375H23.2714V19.4031C23.2714 17.9799 23.2433 16.1547 21.3308 16.1547C19.3902 16.1547 19.0929 17.701 19.0929 19.3006V25.375H15.3643V13.1072H18.9442V14.7807H18.9964C19.4946 13.8168 20.7121 12.7996 22.5281 12.7996C26.3049 12.7996 27 15.3385 27 18.6361V25.375H26.996Z" fill="black"/>
</svg>
