<svg width="169" height="20" viewBox="0 0 169 20" fill="none" xmlns="http://www.w3.org/2000/svg">
<path d="M167.14 15.904L166.944 9.71603V0.280029H168.932V19.096H166.636L162.772 9.35203C162.623 8.96003 161.885 7.00936 160.56 3.50003L160.728 9.66003V19.096H158.796V0.280029H161.092C164.06 7.82136 166.076 13.0294 167.14 15.904Z" fill="black"/>
<path d="M152.987 19.096L151.839 13.832H146.799L145.651 19.096H143.663L147.919 0.280029H150.719L154.975 19.096H152.987ZM147.163 12.096H151.447L149.291 2.21203L147.163 12.096Z" fill="black"/>
<path d="M138.012 0.280029H140V14.952C140 16.2774 139.598 17.3507 138.796 18.172C138.012 18.9747 136.836 19.376 135.268 19.376C133.7 19.376 132.514 18.9747 131.712 18.172C130.928 17.3507 130.536 16.2774 130.536 14.952V0.280029H132.524V14.896C132.524 16.688 133.438 17.584 135.268 17.584C137.097 17.584 138.012 16.688 138.012 14.896V0.280029Z" fill="black"/>
<path d="M116.445 4.28389C116.445 2.99589 116.865 1.98789 117.705 1.25989C118.564 0.513226 119.88 0.139893 121.653 0.139893C122.848 0.139893 123.977 0.29856 125.041 0.615893V2.51989C123.94 2.16523 122.81 1.98789 121.653 1.98789C120.496 1.98789 119.665 2.19323 119.161 2.60389C118.676 2.99589 118.433 3.59323 118.433 4.39589V15.1759C118.433 16.6879 119.329 17.4439 121.121 17.4439C122.297 17.4439 123.137 17.2479 123.641 16.8559V9.85589H125.629V18.1159C124.304 18.8626 122.857 19.2359 121.289 19.2359C118.06 19.2359 116.445 17.9106 116.445 15.2599V4.28389Z" fill="black"/>
<path d="M102.964 15.904L102.768 9.71603V0.280029H104.756V19.096H102.46L98.5964 9.35203C98.447 8.96003 97.7097 7.00936 96.3844 3.50003L96.5524 9.66003V19.096H94.6204V0.280029H96.9164C99.8844 7.82136 101.9 13.0294 102.964 15.904Z" fill="black"/>
<path d="M86.5514 19.096H84.5634V12.74L79.9434 0.280029H81.9874L83.8914 5.40403C83.966 5.60936 84.5354 7.28003 85.5994 10.416C86.29 8.26936 87.4754 4.8907 89.1554 0.280029H91.1714L86.5514 12.74V19.096Z" fill="black"/>
<path d="M70.6016 0.280029H72.5896V17.36H78.3016V19.096H70.6016V0.280029Z" fill="black"/>
<path d="M57.0884 0.280029H59.0764V19.096H57.0884V0.280029ZM64.4244 0.280029H66.5804L62.6324 9.66003L66.8044 19.096H64.5924L60.5044 9.71603L64.4244 0.280029Z" fill="black"/>
<path d="M19.2576 11.536H16.4856V19.096H14.4976V0.280029H19.0616C20.5549 0.280029 21.6842 0.662697 22.4496 1.42803C23.2149 2.1747 23.5976 3.20136 23.5976 4.50803V7.28003C23.5976 9.29603 22.7949 10.6027 21.1896 11.2L24.1856 19.096H22.0016L19.2576 11.536ZM16.4856 9.80003H18.9776C20.7322 9.80003 21.6096 8.9507 21.6096 7.25203V4.59203C21.6096 2.89336 20.7322 2.04403 18.9776 2.04403H16.4856V9.80003Z" fill="black"/>
<path d="M9.352 4.53603V6.13203C9.352 7.92403 8.66133 9.08136 7.28 9.60403C8.77333 10.108 9.52 11.2934 9.52 13.16V14.84C9.52 16.1654 9.13733 17.2107 8.372 17.976C7.62533 18.7227 6.50533 19.096 5.012 19.096H0V0.280029H4.844C6.33733 0.280029 7.45733 0.662697 8.204 1.42803C8.96933 2.1747 9.352 3.2107 9.352 4.53603ZM4.676 2.01603H1.988V8.76403H4.676C6.468 8.76403 7.364 7.90536 7.364 6.18803V4.59203C7.364 2.8747 6.468 2.01603 4.676 2.01603ZM7.532 14.784V13.104C7.532 11.3867 6.636 10.528 4.844 10.528H1.988V17.36H4.844C6.636 17.36 7.532 16.5014 7.532 14.784Z" fill="black"/>
<path fill-rule="evenodd" clip-rule="evenodd" d="M29.6186 1.232C28.8159 2.05333 28.4146 3.12667 28.4146 4.452V14.952C28.4146 16.2773 28.8066 17.3507 29.5906 18.172C30.3932 18.9747 31.5785 19.376 33.1465 19.376C34.7146 19.376 35.8999 18.9747 36.7025 18.172C37.5052 17.3507 37.9066 16.2773 37.9066 14.952V4.452C37.9066 3.12667 37.5052 2.05333 36.7025 1.232C35.8999 0.410666 34.7146 0 33.1465 0C31.5972 0 30.4212 0.410666 29.6186 1.232ZM30.4025 6V14.896C30.4025 16.688 31.3172 17.584 33.1465 17.584C34.9945 17.584 35.9186 16.688 35.9186 14.896V6H30.4025Z" fill="black"/>
<path fill-rule="evenodd" clip-rule="evenodd" d="M43.8153 1.232C43.0127 2.05333 42.6113 3.12667 42.6113 4.452V14.952C42.6113 16.2773 43.0033 17.3507 43.7873 18.172C44.59 18.9747 45.7753 19.376 47.3433 19.376C48.9113 19.376 50.0967 18.9747 50.8993 18.172C51.702 17.3507 52.1033 16.2773 52.1033 14.952V4.452C52.1033 3.12667 51.702 2.05333 50.8993 1.232C50.0967 0.410666 48.9113 0 47.3433 0C45.794 0 44.618 0.410666 43.8153 1.232ZM47.3433 1.82C49.1913 1.82 50.1153 2.70667 50.1153 4.48V14L44.5993 14V4.48C44.5993 2.70667 45.514 1.82 47.3433 1.82Z" fill="black"/>
</svg>
